<mxfile host="app.diagrams.net" agent="Mozilla/5.0 (Windows NT 10.0; Win64; x64) AppleWebKit/537.36 (KHTML, like Gecko) Chrome/130.0.0.0 Safari/537.36 Edg/130.0.0.0" version="24.8.0">
  <diagram name="Page-1" id="kHypzxAksaMk-oMU2lel">
    <mxGraphModel dx="2242" dy="892" grid="1" gridSize="10" guides="1" tooltips="1" connect="1" arrows="1" fold="1" page="1" pageScale="1" pageWidth="850" pageHeight="1100" math="0" shadow="0">
      <root>
        <mxCell id="0" />
        <mxCell id="1" parent="0" />
        <mxCell id="4-8hdjQGgP3l_FeoSxc--1" value="Admin" style="ellipse;whiteSpace=wrap;html=1;" vertex="1" parent="1">
          <mxGeometry x="260" y="20" width="90" height="60" as="geometry" />
        </mxCell>
        <mxCell id="4-8hdjQGgP3l_FeoSxc--2" value="Password" style="rounded=0;whiteSpace=wrap;html=1;" vertex="1" parent="1">
          <mxGeometry x="450" y="20" width="120" height="60" as="geometry" />
        </mxCell>
        <mxCell id="4-8hdjQGgP3l_FeoSxc--3" value="Username" style="rounded=0;whiteSpace=wrap;html=1;" vertex="1" parent="1">
          <mxGeometry x="40" y="20" width="120" height="60" as="geometry" />
        </mxCell>
        <mxCell id="4-8hdjQGgP3l_FeoSxc--4" value="Login" style="rhombus;whiteSpace=wrap;html=1;" vertex="1" parent="1">
          <mxGeometry x="265" y="120" width="80" height="80" as="geometry" />
        </mxCell>
        <mxCell id="4-8hdjQGgP3l_FeoSxc--7" value="" style="endArrow=none;html=1;rounded=0;entryX=0;entryY=0.5;entryDx=0;entryDy=0;exitX=1;exitY=0.5;exitDx=0;exitDy=0;" edge="1" parent="1" source="4-8hdjQGgP3l_FeoSxc--1" target="4-8hdjQGgP3l_FeoSxc--2">
          <mxGeometry width="50" height="50" relative="1" as="geometry">
            <mxPoint x="310" y="360" as="sourcePoint" />
            <mxPoint x="360" y="310" as="targetPoint" />
          </mxGeometry>
        </mxCell>
        <mxCell id="4-8hdjQGgP3l_FeoSxc--8" value="" style="endArrow=none;html=1;rounded=0;exitX=1;exitY=0.5;exitDx=0;exitDy=0;entryX=0;entryY=0.5;entryDx=0;entryDy=0;" edge="1" parent="1" source="4-8hdjQGgP3l_FeoSxc--3" target="4-8hdjQGgP3l_FeoSxc--1">
          <mxGeometry width="50" height="50" relative="1" as="geometry">
            <mxPoint x="310" y="360" as="sourcePoint" />
            <mxPoint x="360" y="310" as="targetPoint" />
          </mxGeometry>
        </mxCell>
        <mxCell id="4-8hdjQGgP3l_FeoSxc--9" value="" style="endArrow=none;html=1;rounded=0;exitX=1;exitY=0.5;exitDx=0;exitDy=0;" edge="1" parent="1">
          <mxGeometry width="50" height="50" relative="1" as="geometry">
            <mxPoint x="159.99999999999977" y="160" as="sourcePoint" />
            <mxPoint x="265" y="160" as="targetPoint" />
          </mxGeometry>
        </mxCell>
        <mxCell id="4-8hdjQGgP3l_FeoSxc--10" value="" style="endArrow=none;html=1;rounded=0;exitX=1;exitY=0.5;exitDx=0;exitDy=0;entryX=0;entryY=0.5;entryDx=0;entryDy=0;" edge="1" parent="1" source="4-8hdjQGgP3l_FeoSxc--4">
          <mxGeometry width="50" height="50" relative="1" as="geometry">
            <mxPoint x="310" y="360" as="sourcePoint" />
            <mxPoint x="540" y="160" as="targetPoint" />
            <Array as="points" />
          </mxGeometry>
        </mxCell>
        <mxCell id="4-8hdjQGgP3l_FeoSxc--11" value="" style="endArrow=none;html=1;rounded=0;exitX=0.5;exitY=0;exitDx=0;exitDy=0;entryX=0.5;entryY=1;entryDx=0;entryDy=0;" edge="1" parent="1" source="4-8hdjQGgP3l_FeoSxc--4" target="4-8hdjQGgP3l_FeoSxc--1">
          <mxGeometry width="50" height="50" relative="1" as="geometry">
            <mxPoint x="310" y="360" as="sourcePoint" />
            <mxPoint x="360" y="310" as="targetPoint" />
          </mxGeometry>
        </mxCell>
        <mxCell id="4-8hdjQGgP3l_FeoSxc--13" value="Log Out" style="rounded=1;whiteSpace=wrap;html=1;" vertex="1" parent="1">
          <mxGeometry x="40" y="130" width="120" height="60" as="geometry" />
        </mxCell>
        <mxCell id="4-8hdjQGgP3l_FeoSxc--14" value="Home Page" style="rounded=1;whiteSpace=wrap;html=1;" vertex="1" parent="1">
          <mxGeometry x="450" y="130" width="120" height="60" as="geometry" />
        </mxCell>
        <mxCell id="4-8hdjQGgP3l_FeoSxc--27" value="Admin" style="ellipse;whiteSpace=wrap;html=1;" vertex="1" parent="1">
          <mxGeometry x="120" y="250" width="80" height="50" as="geometry" />
        </mxCell>
        <mxCell id="4-8hdjQGgP3l_FeoSxc--28" value="admin_id" style="rounded=1;whiteSpace=wrap;html=1;" vertex="1" parent="1">
          <mxGeometry x="10" y="320" width="90" height="40" as="geometry" />
        </mxCell>
        <mxCell id="4-8hdjQGgP3l_FeoSxc--29" value="usernam" style="rounded=1;whiteSpace=wrap;html=1;" vertex="1" parent="1">
          <mxGeometry x="20" y="380" width="90" height="40" as="geometry" />
        </mxCell>
        <mxCell id="4-8hdjQGgP3l_FeoSxc--30" value="email" style="rounded=1;whiteSpace=wrap;html=1;" vertex="1" parent="1">
          <mxGeometry x="110" y="450" width="90" height="40" as="geometry" />
        </mxCell>
        <mxCell id="4-8hdjQGgP3l_FeoSxc--31" value="password" style="rounded=1;whiteSpace=wrap;html=1;" vertex="1" parent="1">
          <mxGeometry x="200" y="380" width="90" height="40" as="geometry" />
        </mxCell>
        <mxCell id="4-8hdjQGgP3l_FeoSxc--32" value="date" style="rounded=1;whiteSpace=wrap;html=1;" vertex="1" parent="1">
          <mxGeometry x="230" y="320" width="90" height="40" as="geometry" />
        </mxCell>
        <mxCell id="4-8hdjQGgP3l_FeoSxc--33" value="" style="endArrow=none;html=1;rounded=0;exitX=0.5;exitY=0;exitDx=0;exitDy=0;entryX=0;entryY=0.5;entryDx=0;entryDy=0;" edge="1" parent="1" source="4-8hdjQGgP3l_FeoSxc--28" target="4-8hdjQGgP3l_FeoSxc--27">
          <mxGeometry width="50" height="50" relative="1" as="geometry">
            <mxPoint x="180" y="320" as="sourcePoint" />
            <mxPoint x="110" y="280" as="targetPoint" />
          </mxGeometry>
        </mxCell>
        <mxCell id="4-8hdjQGgP3l_FeoSxc--34" value="" style="endArrow=none;html=1;rounded=0;entryX=0.25;entryY=1;entryDx=0;entryDy=0;entryPerimeter=0;" edge="1" parent="1" target="4-8hdjQGgP3l_FeoSxc--27">
          <mxGeometry width="50" height="50" relative="1" as="geometry">
            <mxPoint x="100" y="380" as="sourcePoint" />
            <mxPoint x="160" y="300" as="targetPoint" />
          </mxGeometry>
        </mxCell>
        <mxCell id="4-8hdjQGgP3l_FeoSxc--35" value="" style="endArrow=none;html=1;rounded=0;exitX=0.5;exitY=0;exitDx=0;exitDy=0;entryX=0.5;entryY=1;entryDx=0;entryDy=0;" edge="1" parent="1" source="4-8hdjQGgP3l_FeoSxc--30" target="4-8hdjQGgP3l_FeoSxc--27">
          <mxGeometry width="50" height="50" relative="1" as="geometry">
            <mxPoint x="180" y="320" as="sourcePoint" />
            <mxPoint x="230" y="270" as="targetPoint" />
          </mxGeometry>
        </mxCell>
        <mxCell id="4-8hdjQGgP3l_FeoSxc--36" value="" style="endArrow=none;html=1;rounded=0;exitX=0.25;exitY=0;exitDx=0;exitDy=0;entryX=1;entryY=1;entryDx=0;entryDy=0;" edge="1" parent="1" source="4-8hdjQGgP3l_FeoSxc--31" target="4-8hdjQGgP3l_FeoSxc--27">
          <mxGeometry width="50" height="50" relative="1" as="geometry">
            <mxPoint x="180" y="320" as="sourcePoint" />
            <mxPoint x="230" y="270" as="targetPoint" />
          </mxGeometry>
        </mxCell>
        <mxCell id="4-8hdjQGgP3l_FeoSxc--37" value="" style="endArrow=none;html=1;rounded=0;entryX=0.5;entryY=0;entryDx=0;entryDy=0;exitX=1;exitY=0.5;exitDx=0;exitDy=0;" edge="1" parent="1" source="4-8hdjQGgP3l_FeoSxc--27" target="4-8hdjQGgP3l_FeoSxc--32">
          <mxGeometry width="50" height="50" relative="1" as="geometry">
            <mxPoint x="180" y="320" as="sourcePoint" />
            <mxPoint x="230" y="270" as="targetPoint" />
          </mxGeometry>
        </mxCell>
        <mxCell id="4-8hdjQGgP3l_FeoSxc--38" value="" style="endArrow=none;html=1;rounded=0;entryX=0;entryY=0.75;entryDx=0;entryDy=0;exitX=0.5;exitY=0;exitDx=0;exitDy=0;" edge="1" parent="1" source="4-8hdjQGgP3l_FeoSxc--27" target="4-8hdjQGgP3l_FeoSxc--14">
          <mxGeometry width="50" height="50" relative="1" as="geometry">
            <mxPoint x="130" y="200" as="sourcePoint" />
            <mxPoint x="180" y="150" as="targetPoint" />
          </mxGeometry>
        </mxCell>
        <mxCell id="4-8hdjQGgP3l_FeoSxc--40" value="" style="endArrow=none;html=1;rounded=0;exitX=0.5;exitY=0;exitDx=0;exitDy=0;entryX=0;entryY=0.5;entryDx=0;entryDy=0;" edge="1" source="4-8hdjQGgP3l_FeoSxc--46" target="4-8hdjQGgP3l_FeoSxc--45" parent="1">
          <mxGeometry width="50" height="50" relative="1" as="geometry">
            <mxPoint x="270" y="590" as="sourcePoint" />
            <mxPoint x="200" y="550" as="targetPoint" />
          </mxGeometry>
        </mxCell>
        <mxCell id="4-8hdjQGgP3l_FeoSxc--41" value="" style="endArrow=none;html=1;rounded=0;entryX=0.25;entryY=1;entryDx=0;entryDy=0;entryPerimeter=0;" edge="1" target="4-8hdjQGgP3l_FeoSxc--45" parent="1">
          <mxGeometry width="50" height="50" relative="1" as="geometry">
            <mxPoint x="190" y="650" as="sourcePoint" />
            <mxPoint x="250" y="570" as="targetPoint" />
          </mxGeometry>
        </mxCell>
        <mxCell id="4-8hdjQGgP3l_FeoSxc--42" value="" style="endArrow=none;html=1;rounded=0;exitX=0.5;exitY=0;exitDx=0;exitDy=0;entryX=0.5;entryY=1;entryDx=0;entryDy=0;" edge="1" source="4-8hdjQGgP3l_FeoSxc--48" target="4-8hdjQGgP3l_FeoSxc--45" parent="1">
          <mxGeometry width="50" height="50" relative="1" as="geometry">
            <mxPoint x="270" y="590" as="sourcePoint" />
            <mxPoint x="320" y="540" as="targetPoint" />
          </mxGeometry>
        </mxCell>
        <mxCell id="4-8hdjQGgP3l_FeoSxc--43" value="" style="endArrow=none;html=1;rounded=0;exitX=0.25;exitY=0;exitDx=0;exitDy=0;entryX=1;entryY=0;entryDx=0;entryDy=0;" edge="1" source="4-8hdjQGgP3l_FeoSxc--49" target="4-8hdjQGgP3l_FeoSxc--45" parent="1">
          <mxGeometry width="50" height="50" relative="1" as="geometry">
            <mxPoint x="270" y="590" as="sourcePoint" />
            <mxPoint x="320" y="540" as="targetPoint" />
          </mxGeometry>
        </mxCell>
        <mxCell id="4-8hdjQGgP3l_FeoSxc--44" value="" style="endArrow=none;html=1;rounded=0;entryX=0.5;entryY=0;entryDx=0;entryDy=0;exitX=1;exitY=0.5;exitDx=0;exitDy=0;" edge="1" source="4-8hdjQGgP3l_FeoSxc--45" target="4-8hdjQGgP3l_FeoSxc--50" parent="1">
          <mxGeometry width="50" height="50" relative="1" as="geometry">
            <mxPoint x="270" y="590" as="sourcePoint" />
            <mxPoint x="320" y="540" as="targetPoint" />
          </mxGeometry>
        </mxCell>
        <mxCell id="4-8hdjQGgP3l_FeoSxc--45" value="dishes" style="ellipse;whiteSpace=wrap;html=1;" vertex="1" parent="1">
          <mxGeometry x="210" y="520" width="80" height="50" as="geometry" />
        </mxCell>
        <mxCell id="4-8hdjQGgP3l_FeoSxc--46" value="d_id" style="rounded=1;whiteSpace=wrap;html=1;" vertex="1" parent="1">
          <mxGeometry x="100" y="590" width="90" height="40" as="geometry" />
        </mxCell>
        <mxCell id="4-8hdjQGgP3l_FeoSxc--47" value="rs_id" style="rounded=1;whiteSpace=wrap;html=1;" vertex="1" parent="1">
          <mxGeometry x="110" y="650" width="90" height="40" as="geometry" />
        </mxCell>
        <mxCell id="4-8hdjQGgP3l_FeoSxc--48" value="title" style="rounded=1;whiteSpace=wrap;html=1;" vertex="1" parent="1">
          <mxGeometry x="200" y="720" width="90" height="40" as="geometry" />
        </mxCell>
        <mxCell id="4-8hdjQGgP3l_FeoSxc--49" value="price" style="rounded=1;whiteSpace=wrap;html=1;" vertex="1" parent="1">
          <mxGeometry x="290" y="650" width="90" height="40" as="geometry" />
        </mxCell>
        <mxCell id="4-8hdjQGgP3l_FeoSxc--50" value="image" style="rounded=1;whiteSpace=wrap;html=1;" vertex="1" parent="1">
          <mxGeometry x="320" y="590" width="90" height="40" as="geometry" />
        </mxCell>
        <mxCell id="4-8hdjQGgP3l_FeoSxc--51" value="" style="endArrow=none;html=1;rounded=0;exitX=0.5;exitY=0;exitDx=0;exitDy=0;entryX=0;entryY=1;entryDx=0;entryDy=0;" edge="1" parent="1" source="4-8hdjQGgP3l_FeoSxc--45" target="4-8hdjQGgP3l_FeoSxc--14">
          <mxGeometry width="50" height="50" relative="1" as="geometry">
            <mxPoint x="340" y="610" as="sourcePoint" />
            <mxPoint x="390" y="560" as="targetPoint" />
          </mxGeometry>
        </mxCell>
        <mxCell id="4-8hdjQGgP3l_FeoSxc--53" value="" style="endArrow=none;html=1;rounded=0;exitX=0.5;exitY=0;exitDx=0;exitDy=0;entryX=0;entryY=0.5;entryDx=0;entryDy=0;" edge="1" source="4-8hdjQGgP3l_FeoSxc--59" parent="1">
          <mxGeometry width="50" height="50" relative="1" as="geometry">
            <mxPoint x="575" y="800" as="sourcePoint" />
            <mxPoint x="515" y="755" as="targetPoint" />
          </mxGeometry>
        </mxCell>
        <mxCell id="4-8hdjQGgP3l_FeoSxc--54" value="" style="endArrow=none;html=1;rounded=0;exitX=0.75;exitY=0;exitDx=0;exitDy=0;" edge="1" parent="1" source="4-8hdjQGgP3l_FeoSxc--60">
          <mxGeometry width="50" height="50" relative="1" as="geometry">
            <mxPoint x="495" y="860" as="sourcePoint" />
            <mxPoint x="523.2392626896244" y="770.1973420463626" as="targetPoint" />
          </mxGeometry>
        </mxCell>
        <mxCell id="4-8hdjQGgP3l_FeoSxc--55" value="" style="endArrow=none;html=1;rounded=0;exitX=0.5;exitY=0;exitDx=0;exitDy=0;entryX=0.5;entryY=1;entryDx=0;entryDy=0;" edge="1" source="4-8hdjQGgP3l_FeoSxc--61" parent="1">
          <mxGeometry width="50" height="50" relative="1" as="geometry">
            <mxPoint x="575" y="800" as="sourcePoint" />
            <mxPoint x="555" y="780" as="targetPoint" />
          </mxGeometry>
        </mxCell>
        <mxCell id="4-8hdjQGgP3l_FeoSxc--57" value="" style="endArrow=none;html=1;rounded=0;entryX=0;entryY=0.5;entryDx=0;entryDy=0;exitX=1;exitY=0.5;exitDx=0;exitDy=0;" edge="1" target="4-8hdjQGgP3l_FeoSxc--63" parent="1">
          <mxGeometry width="50" height="50" relative="1" as="geometry">
            <mxPoint x="595" y="755" as="sourcePoint" />
            <mxPoint x="625" y="750" as="targetPoint" />
          </mxGeometry>
        </mxCell>
        <mxCell id="4-8hdjQGgP3l_FeoSxc--59" value="rs_id" style="rounded=1;whiteSpace=wrap;html=1;" vertex="1" parent="1">
          <mxGeometry x="325" y="770" width="90" height="40" as="geometry" />
        </mxCell>
        <mxCell id="4-8hdjQGgP3l_FeoSxc--60" value="c_id" style="rounded=1;whiteSpace=wrap;html=1;" vertex="1" parent="1">
          <mxGeometry x="310" y="840" width="90" height="40" as="geometry" />
        </mxCell>
        <mxCell id="4-8hdjQGgP3l_FeoSxc--61" value="title" style="rounded=1;whiteSpace=wrap;html=1;" vertex="1" parent="1">
          <mxGeometry x="325" y="910" width="90" height="40" as="geometry" />
        </mxCell>
        <mxCell id="4-8hdjQGgP3l_FeoSxc--62" value="email" style="rounded=1;whiteSpace=wrap;html=1;" vertex="1" parent="1">
          <mxGeometry x="515" y="740" width="90" height="40" as="geometry" />
        </mxCell>
        <mxCell id="4-8hdjQGgP3l_FeoSxc--63" value="phone" style="rounded=1;whiteSpace=wrap;html=1;" vertex="1" parent="1">
          <mxGeometry x="725" y="800" width="90" height="40" as="geometry" />
        </mxCell>
        <mxCell id="4-8hdjQGgP3l_FeoSxc--64" value="url" style="rounded=0;whiteSpace=wrap;html=1;" vertex="1" parent="1">
          <mxGeometry x="365" y="970" width="90" height="40" as="geometry" />
        </mxCell>
        <mxCell id="4-8hdjQGgP3l_FeoSxc--65" value="o_hr" style="rounded=0;whiteSpace=wrap;html=1;" vertex="1" parent="1">
          <mxGeometry x="405" y="1030" width="80" height="40" as="geometry" />
        </mxCell>
        <mxCell id="4-8hdjQGgP3l_FeoSxc--66" value="c_hr" style="rounded=0;whiteSpace=wrap;html=1;" vertex="1" parent="1">
          <mxGeometry x="465" y="1080" width="80" height="40" as="geometry" />
        </mxCell>
        <mxCell id="4-8hdjQGgP3l_FeoSxc--67" value="o_days" style="rounded=0;whiteSpace=wrap;html=1;" vertex="1" parent="1">
          <mxGeometry x="575" y="1080" width="80" height="40" as="geometry" />
        </mxCell>
        <mxCell id="4-8hdjQGgP3l_FeoSxc--68" value="address" style="rounded=0;whiteSpace=wrap;html=1;" vertex="1" parent="1">
          <mxGeometry x="655" y="1020" width="80" height="40" as="geometry" />
        </mxCell>
        <mxCell id="4-8hdjQGgP3l_FeoSxc--69" value="image" style="rounded=0;whiteSpace=wrap;html=1;" vertex="1" parent="1">
          <mxGeometry x="690" y="960" width="80" height="40" as="geometry" />
        </mxCell>
        <mxCell id="4-8hdjQGgP3l_FeoSxc--70" value="date" style="rounded=0;whiteSpace=wrap;html=1;" vertex="1" parent="1">
          <mxGeometry x="730" y="890" width="80" height="40" as="geometry" />
        </mxCell>
        <mxCell id="4-8hdjQGgP3l_FeoSxc--71" value="" style="endArrow=none;html=1;rounded=0;entryX=0.5;entryY=1;entryDx=0;entryDy=0;exitX=0.5;exitY=0;exitDx=0;exitDy=0;" edge="1" parent="1" source="4-8hdjQGgP3l_FeoSxc--64">
          <mxGeometry width="50" height="50" relative="1" as="geometry">
            <mxPoint x="785" y="760" as="sourcePoint" />
            <mxPoint x="555" y="780" as="targetPoint" />
          </mxGeometry>
        </mxCell>
        <mxCell id="4-8hdjQGgP3l_FeoSxc--75" value="" style="endArrow=none;html=1;rounded=0;exitX=0.75;exitY=0;exitDx=0;exitDy=0;entryX=0.5;entryY=1;entryDx=0;entryDy=0;" edge="1" parent="1" source="4-8hdjQGgP3l_FeoSxc--65">
          <mxGeometry width="50" height="50" relative="1" as="geometry">
            <mxPoint x="785" y="950" as="sourcePoint" />
            <mxPoint x="555" y="780" as="targetPoint" />
          </mxGeometry>
        </mxCell>
        <mxCell id="4-8hdjQGgP3l_FeoSxc--76" value="" style="endArrow=none;html=1;rounded=0;exitX=0.5;exitY=0;exitDx=0;exitDy=0;entryX=0.5;entryY=1;entryDx=0;entryDy=0;" edge="1" parent="1" source="4-8hdjQGgP3l_FeoSxc--66">
          <mxGeometry width="50" height="50" relative="1" as="geometry">
            <mxPoint x="785" y="950" as="sourcePoint" />
            <mxPoint x="555" y="780" as="targetPoint" />
          </mxGeometry>
        </mxCell>
        <mxCell id="4-8hdjQGgP3l_FeoSxc--77" value="" style="endArrow=none;html=1;rounded=0;exitX=0.5;exitY=0;exitDx=0;exitDy=0;entryX=0.5;entryY=1;entryDx=0;entryDy=0;" edge="1" parent="1" source="4-8hdjQGgP3l_FeoSxc--67">
          <mxGeometry width="50" height="50" relative="1" as="geometry">
            <mxPoint x="785" y="950" as="sourcePoint" />
            <mxPoint x="555" y="780" as="targetPoint" />
          </mxGeometry>
        </mxCell>
        <mxCell id="4-8hdjQGgP3l_FeoSxc--78" value="" style="endArrow=none;html=1;rounded=0;exitX=0.25;exitY=0;exitDx=0;exitDy=0;entryX=0.5;entryY=1;entryDx=0;entryDy=0;" edge="1" parent="1" source="4-8hdjQGgP3l_FeoSxc--68">
          <mxGeometry width="50" height="50" relative="1" as="geometry">
            <mxPoint x="785" y="950" as="sourcePoint" />
            <mxPoint x="555" y="780" as="targetPoint" />
          </mxGeometry>
        </mxCell>
        <mxCell id="4-8hdjQGgP3l_FeoSxc--79" value="" style="endArrow=none;html=1;rounded=0;entryX=0.636;entryY=1.048;entryDx=0;entryDy=0;exitX=0;exitY=0.25;exitDx=0;exitDy=0;entryPerimeter=0;" edge="1" parent="1" source="4-8hdjQGgP3l_FeoSxc--69" target="4-8hdjQGgP3l_FeoSxc--62">
          <mxGeometry width="50" height="50" relative="1" as="geometry">
            <mxPoint x="785" y="950" as="sourcePoint" />
            <mxPoint x="583.4192773858967" y="772.5928860007932" as="targetPoint" />
          </mxGeometry>
        </mxCell>
        <mxCell id="4-8hdjQGgP3l_FeoSxc--80" value="" style="endArrow=none;html=1;rounded=0;exitX=0;exitY=0;exitDx=0;exitDy=0;entryX=1;entryY=1;entryDx=0;entryDy=0;" edge="1" parent="1" source="4-8hdjQGgP3l_FeoSxc--70" target="4-8hdjQGgP3l_FeoSxc--62">
          <mxGeometry width="50" height="50" relative="1" as="geometry">
            <mxPoint x="785" y="950" as="sourcePoint" />
            <mxPoint x="580.1988139838741" y="774.4154796269195" as="targetPoint" />
          </mxGeometry>
        </mxCell>
        <mxCell id="4-8hdjQGgP3l_FeoSxc--81" value="" style="endArrow=none;html=1;rounded=0;exitX=1;exitY=0.25;exitDx=0;exitDy=0;entryX=0;entryY=0.5;entryDx=0;entryDy=0;" edge="1" source="4-8hdjQGgP3l_FeoSxc--87" target="4-8hdjQGgP3l_FeoSxc--86" parent="1">
          <mxGeometry width="50" height="50" relative="1" as="geometry">
            <mxPoint x="1080" y="670" as="sourcePoint" />
            <mxPoint x="1010" y="630" as="targetPoint" />
          </mxGeometry>
        </mxCell>
        <mxCell id="4-8hdjQGgP3l_FeoSxc--82" value="" style="endArrow=none;html=1;rounded=0;entryX=0;entryY=1;entryDx=0;entryDy=0;exitX=1;exitY=0;exitDx=0;exitDy=0;" edge="1" target="4-8hdjQGgP3l_FeoSxc--86" parent="1" source="4-8hdjQGgP3l_FeoSxc--88">
          <mxGeometry width="50" height="50" relative="1" as="geometry">
            <mxPoint x="1000" y="730" as="sourcePoint" />
            <mxPoint x="1060" y="650" as="targetPoint" />
          </mxGeometry>
        </mxCell>
        <mxCell id="4-8hdjQGgP3l_FeoSxc--83" value="" style="endArrow=none;html=1;rounded=0;exitX=0.676;exitY=0.006;exitDx=0;exitDy=0;entryX=0.407;entryY=0.957;entryDx=0;entryDy=0;entryPerimeter=0;exitPerimeter=0;" edge="1" target="4-8hdjQGgP3l_FeoSxc--86" parent="1" source="4-8hdjQGgP3l_FeoSxc--91">
          <mxGeometry width="50" height="50" relative="1" as="geometry">
            <mxPoint x="1055" y="800" as="sourcePoint" />
            <mxPoint x="1050" y="660" as="targetPoint" />
          </mxGeometry>
        </mxCell>
        <mxCell id="4-8hdjQGgP3l_FeoSxc--84" value="" style="endArrow=none;html=1;rounded=0;exitX=0;exitY=0.5;exitDx=0;exitDy=0;" edge="1" target="4-8hdjQGgP3l_FeoSxc--86" parent="1">
          <mxGeometry width="50" height="50" relative="1" as="geometry">
            <mxPoint x="1220" y="720" as="sourcePoint" />
            <mxPoint x="1130" y="620" as="targetPoint" />
          </mxGeometry>
        </mxCell>
        <mxCell id="4-8hdjQGgP3l_FeoSxc--85" value="" style="endArrow=none;html=1;rounded=0;entryX=0.5;entryY=0;entryDx=0;entryDy=0;exitX=1;exitY=0.5;exitDx=0;exitDy=0;" edge="1" source="4-8hdjQGgP3l_FeoSxc--86" target="4-8hdjQGgP3l_FeoSxc--90" parent="1">
          <mxGeometry width="50" height="50" relative="1" as="geometry">
            <mxPoint x="1080" y="670" as="sourcePoint" />
            <mxPoint x="1130" y="620" as="targetPoint" />
          </mxGeometry>
        </mxCell>
        <mxCell id="4-8hdjQGgP3l_FeoSxc--86" value="users" style="ellipse;whiteSpace=wrap;html=1;" vertex="1" parent="1">
          <mxGeometry x="1020" y="600" width="80" height="50" as="geometry" />
        </mxCell>
        <mxCell id="4-8hdjQGgP3l_FeoSxc--87" value="u_id" style="rounded=1;whiteSpace=wrap;html=1;" vertex="1" parent="1">
          <mxGeometry x="870" y="640" width="90" height="40" as="geometry" />
        </mxCell>
        <mxCell id="4-8hdjQGgP3l_FeoSxc--88" value="username" style="rounded=1;whiteSpace=wrap;html=1;" vertex="1" parent="1">
          <mxGeometry x="860" y="710" width="90" height="40" as="geometry" />
        </mxCell>
        <mxCell id="4-8hdjQGgP3l_FeoSxc--89" value="status" style="rounded=1;whiteSpace=wrap;html=1;" vertex="1" parent="1">
          <mxGeometry x="1200" y="700" width="90" height="40" as="geometry" />
        </mxCell>
        <mxCell id="4-8hdjQGgP3l_FeoSxc--90" value="address" style="rounded=1;whiteSpace=wrap;html=1;" vertex="1" parent="1">
          <mxGeometry x="1200" y="640" width="90" height="40" as="geometry" />
        </mxCell>
        <mxCell id="4-8hdjQGgP3l_FeoSxc--91" value="f_name" style="rounded=1;whiteSpace=wrap;html=1;" vertex="1" parent="1">
          <mxGeometry x="885" y="780" width="90" height="40" as="geometry" />
        </mxCell>
        <mxCell id="4-8hdjQGgP3l_FeoSxc--92" value="l_name" style="rounded=1;whiteSpace=wrap;html=1;" vertex="1" parent="1">
          <mxGeometry x="910" y="845" width="90" height="40" as="geometry" />
        </mxCell>
        <mxCell id="4-8hdjQGgP3l_FeoSxc--93" value="email" style="rounded=1;whiteSpace=wrap;html=1;" vertex="1" parent="1">
          <mxGeometry x="1000" y="910" width="90" height="40" as="geometry" />
        </mxCell>
        <mxCell id="4-8hdjQGgP3l_FeoSxc--94" value="phone" style="rounded=1;whiteSpace=wrap;html=1;" vertex="1" parent="1">
          <mxGeometry x="1110" y="860" width="90" height="40" as="geometry" />
        </mxCell>
        <mxCell id="4-8hdjQGgP3l_FeoSxc--95" value="date" style="rounded=1;whiteSpace=wrap;html=1;" vertex="1" parent="1">
          <mxGeometry x="1210" y="750" width="90" height="40" as="geometry" />
        </mxCell>
        <mxCell id="4-8hdjQGgP3l_FeoSxc--96" value="phone" style="rounded=1;whiteSpace=wrap;html=1;" vertex="1" parent="1">
          <mxGeometry x="1180" y="805" width="90" height="40" as="geometry" />
        </mxCell>
        <mxCell id="4-8hdjQGgP3l_FeoSxc--97" value="" style="endArrow=none;html=1;rounded=0;exitX=0.75;exitY=0;exitDx=0;exitDy=0;entryX=0.5;entryY=1;entryDx=0;entryDy=0;" edge="1" parent="1" source="4-8hdjQGgP3l_FeoSxc--92" target="4-8hdjQGgP3l_FeoSxc--86">
          <mxGeometry width="50" height="50" relative="1" as="geometry">
            <mxPoint x="1080" y="790" as="sourcePoint" />
            <mxPoint x="1130" y="740" as="targetPoint" />
          </mxGeometry>
        </mxCell>
        <mxCell id="4-8hdjQGgP3l_FeoSxc--98" value="" style="endArrow=none;html=1;rounded=0;exitX=0.416;exitY=-0.081;exitDx=0;exitDy=0;exitPerimeter=0;entryX=0.5;entryY=1;entryDx=0;entryDy=0;" edge="1" parent="1" source="4-8hdjQGgP3l_FeoSxc--93" target="4-8hdjQGgP3l_FeoSxc--86">
          <mxGeometry width="50" height="50" relative="1" as="geometry">
            <mxPoint x="1080" y="790" as="sourcePoint" />
            <mxPoint x="1130" y="740" as="targetPoint" />
          </mxGeometry>
        </mxCell>
        <mxCell id="4-8hdjQGgP3l_FeoSxc--99" value="" style="endArrow=none;html=1;rounded=0;exitX=0.25;exitY=0;exitDx=0;exitDy=0;" edge="1" parent="1" source="4-8hdjQGgP3l_FeoSxc--94" target="4-8hdjQGgP3l_FeoSxc--86">
          <mxGeometry width="50" height="50" relative="1" as="geometry">
            <mxPoint x="1080" y="790" as="sourcePoint" />
            <mxPoint x="1130" y="740" as="targetPoint" />
          </mxGeometry>
        </mxCell>
        <mxCell id="4-8hdjQGgP3l_FeoSxc--100" value="" style="endArrow=none;html=1;rounded=0;entryX=0.676;entryY=0.913;entryDx=0;entryDy=0;entryPerimeter=0;exitX=0;exitY=0;exitDx=0;exitDy=0;" edge="1" parent="1" source="4-8hdjQGgP3l_FeoSxc--96" target="4-8hdjQGgP3l_FeoSxc--86">
          <mxGeometry width="50" height="50" relative="1" as="geometry">
            <mxPoint x="1080" y="790" as="sourcePoint" />
            <mxPoint x="1130" y="740" as="targetPoint" />
          </mxGeometry>
        </mxCell>
        <mxCell id="4-8hdjQGgP3l_FeoSxc--101" value="" style="endArrow=none;html=1;rounded=0;entryX=1;entryY=1;entryDx=0;entryDy=0;exitX=0;exitY=0.5;exitDx=0;exitDy=0;" edge="1" parent="1" source="4-8hdjQGgP3l_FeoSxc--95" target="4-8hdjQGgP3l_FeoSxc--86">
          <mxGeometry width="50" height="50" relative="1" as="geometry">
            <mxPoint x="1080" y="790" as="sourcePoint" />
            <mxPoint x="1130" y="740" as="targetPoint" />
          </mxGeometry>
        </mxCell>
        <mxCell id="4-8hdjQGgP3l_FeoSxc--123" value="" style="endArrow=none;html=1;rounded=0;exitX=1;exitY=0.25;exitDx=0;exitDy=0;entryX=0;entryY=0.5;entryDx=0;entryDy=0;" edge="1" source="4-8hdjQGgP3l_FeoSxc--129" target="4-8hdjQGgP3l_FeoSxc--128" parent="1">
          <mxGeometry width="50" height="50" relative="1" as="geometry">
            <mxPoint x="1070" y="300" as="sourcePoint" />
            <mxPoint x="1000" y="260" as="targetPoint" />
          </mxGeometry>
        </mxCell>
        <mxCell id="4-8hdjQGgP3l_FeoSxc--124" value="" style="endArrow=none;html=1;rounded=0;entryX=0;entryY=1;entryDx=0;entryDy=0;exitX=1;exitY=0;exitDx=0;exitDy=0;" edge="1" source="4-8hdjQGgP3l_FeoSxc--130" target="4-8hdjQGgP3l_FeoSxc--128" parent="1">
          <mxGeometry width="50" height="50" relative="1" as="geometry">
            <mxPoint x="990" y="360" as="sourcePoint" />
            <mxPoint x="1050" y="280" as="targetPoint" />
          </mxGeometry>
        </mxCell>
        <mxCell id="4-8hdjQGgP3l_FeoSxc--125" value="" style="endArrow=none;html=1;rounded=0;exitX=0.676;exitY=0.006;exitDx=0;exitDy=0;entryX=0.407;entryY=0.957;entryDx=0;entryDy=0;entryPerimeter=0;exitPerimeter=0;" edge="1" source="4-8hdjQGgP3l_FeoSxc--133" target="4-8hdjQGgP3l_FeoSxc--128" parent="1">
          <mxGeometry width="50" height="50" relative="1" as="geometry">
            <mxPoint x="1045" y="430" as="sourcePoint" />
            <mxPoint x="1040" y="290" as="targetPoint" />
          </mxGeometry>
        </mxCell>
        <mxCell id="4-8hdjQGgP3l_FeoSxc--126" value="" style="endArrow=none;html=1;rounded=0;exitX=0;exitY=0.5;exitDx=0;exitDy=0;" edge="1" source="4-8hdjQGgP3l_FeoSxc--131" target="4-8hdjQGgP3l_FeoSxc--128" parent="1">
          <mxGeometry width="50" height="50" relative="1" as="geometry">
            <mxPoint x="1070" y="300" as="sourcePoint" />
            <mxPoint x="1120" y="250" as="targetPoint" />
          </mxGeometry>
        </mxCell>
        <mxCell id="4-8hdjQGgP3l_FeoSxc--127" value="" style="endArrow=none;html=1;rounded=0;entryX=0;entryY=0;entryDx=0;entryDy=0;exitX=1;exitY=0.5;exitDx=0;exitDy=0;" edge="1" source="4-8hdjQGgP3l_FeoSxc--128" target="4-8hdjQGgP3l_FeoSxc--132" parent="1">
          <mxGeometry width="50" height="50" relative="1" as="geometry">
            <mxPoint x="1070" y="300" as="sourcePoint" />
            <mxPoint x="1120" y="250" as="targetPoint" />
          </mxGeometry>
        </mxCell>
        <mxCell id="4-8hdjQGgP3l_FeoSxc--128" value="users_orders" style="ellipse;whiteSpace=wrap;html=1;" vertex="1" parent="1">
          <mxGeometry x="1010" y="230" width="80" height="50" as="geometry" />
        </mxCell>
        <mxCell id="4-8hdjQGgP3l_FeoSxc--129" value="u_id" style="rounded=1;whiteSpace=wrap;html=1;" vertex="1" parent="1">
          <mxGeometry x="860" y="270" width="90" height="40" as="geometry" />
        </mxCell>
        <mxCell id="4-8hdjQGgP3l_FeoSxc--130" value="o_id" style="rounded=1;whiteSpace=wrap;html=1;" vertex="1" parent="1">
          <mxGeometry x="860" y="350" width="90" height="40" as="geometry" />
        </mxCell>
        <mxCell id="4-8hdjQGgP3l_FeoSxc--131" value="status" style="rounded=1;whiteSpace=wrap;html=1;" vertex="1" parent="1">
          <mxGeometry x="1165" y="360" width="90" height="40" as="geometry" />
        </mxCell>
        <mxCell id="4-8hdjQGgP3l_FeoSxc--132" value="date" style="rounded=1;whiteSpace=wrap;html=1;" vertex="1" parent="1">
          <mxGeometry x="1155" y="290" width="90" height="40" as="geometry" />
        </mxCell>
        <mxCell id="4-8hdjQGgP3l_FeoSxc--133" value="title" style="rounded=1;whiteSpace=wrap;html=1;" vertex="1" parent="1">
          <mxGeometry x="875" y="430" width="90" height="40" as="geometry" />
        </mxCell>
        <mxCell id="4-8hdjQGgP3l_FeoSxc--134" value="quantity" style="rounded=1;whiteSpace=wrap;html=1;" vertex="1" parent="1">
          <mxGeometry x="975" y="480" width="90" height="40" as="geometry" />
        </mxCell>
        <mxCell id="4-8hdjQGgP3l_FeoSxc--138" value="price" style="rounded=1;whiteSpace=wrap;html=1;" vertex="1" parent="1">
          <mxGeometry x="1100" y="470" width="90" height="40" as="geometry" />
        </mxCell>
        <mxCell id="4-8hdjQGgP3l_FeoSxc--139" value="" style="endArrow=none;html=1;rounded=0;exitX=0.5;exitY=0;exitDx=0;exitDy=0;entryX=0.5;entryY=1;entryDx=0;entryDy=0;" edge="1" source="4-8hdjQGgP3l_FeoSxc--134" target="4-8hdjQGgP3l_FeoSxc--128" parent="1">
          <mxGeometry width="50" height="50" relative="1" as="geometry">
            <mxPoint x="1070" y="420" as="sourcePoint" />
            <mxPoint x="1120" y="370" as="targetPoint" />
          </mxGeometry>
        </mxCell>
        <mxCell id="4-8hdjQGgP3l_FeoSxc--142" value="" style="endArrow=none;html=1;rounded=0;entryX=0.5;entryY=1;entryDx=0;entryDy=0;exitX=0.5;exitY=0;exitDx=0;exitDy=0;" edge="1" source="4-8hdjQGgP3l_FeoSxc--138" target="4-8hdjQGgP3l_FeoSxc--128" parent="1">
          <mxGeometry width="50" height="50" relative="1" as="geometry">
            <mxPoint x="1070" y="420" as="sourcePoint" />
            <mxPoint x="1120" y="370" as="targetPoint" />
          </mxGeometry>
        </mxCell>
        <mxCell id="4-8hdjQGgP3l_FeoSxc--144" value="" style="endArrow=none;html=1;rounded=0;exitX=0.5;exitY=1;exitDx=0;exitDy=0;entryX=0.5;entryY=0;entryDx=0;entryDy=0;" edge="1" parent="1" source="4-8hdjQGgP3l_FeoSxc--14" target="4-8hdjQGgP3l_FeoSxc--62">
          <mxGeometry width="50" height="50" relative="1" as="geometry">
            <mxPoint x="900" y="380" as="sourcePoint" />
            <mxPoint x="950" y="330" as="targetPoint" />
          </mxGeometry>
        </mxCell>
        <mxCell id="4-8hdjQGgP3l_FeoSxc--145" value="" style="endArrow=none;html=1;rounded=0;exitX=0.5;exitY=1;exitDx=0;exitDy=0;entryX=0;entryY=0;entryDx=0;entryDy=0;" edge="1" parent="1" source="4-8hdjQGgP3l_FeoSxc--14" target="4-8hdjQGgP3l_FeoSxc--86">
          <mxGeometry width="50" height="50" relative="1" as="geometry">
            <mxPoint x="900" y="380" as="sourcePoint" />
            <mxPoint x="950" y="330" as="targetPoint" />
          </mxGeometry>
        </mxCell>
        <mxCell id="4-8hdjQGgP3l_FeoSxc--146" value="" style="endArrow=none;html=1;rounded=0;exitX=1;exitY=0.5;exitDx=0;exitDy=0;entryX=0;entryY=0;entryDx=0;entryDy=0;" edge="1" parent="1" source="4-8hdjQGgP3l_FeoSxc--14" target="4-8hdjQGgP3l_FeoSxc--128">
          <mxGeometry width="50" height="50" relative="1" as="geometry">
            <mxPoint x="900" y="380" as="sourcePoint" />
            <mxPoint x="950" y="330" as="targetPoint" />
          </mxGeometry>
        </mxCell>
      </root>
    </mxGraphModel>
  </diagram>
</mxfile>
